<svg width="275" height="102" viewBox="0 0 275 102" fill="none" xmlns="http://www.w3.org/2000/svg">
<mask id="path-1-outside-1_2966_74" maskUnits="userSpaceOnUse" x="-1" y="10" width="229" height="32" fill="black">
<rect fill="white" x="-1" y="10" width="229" height="32"/>
<path d="M1.16 40L6.76 12H20.28C23.32 12 25.64 12.5467 27.24 13.64C28.8667 14.7333 29.68 16.32 29.68 18.4C29.68 20.16 29.2133 21.64 28.28 22.84C27.3733 24.04 26.16 24.9467 24.64 25.56C23.12 26.1733 21.4667 26.48 19.68 26.48L20.72 24.88C23.0667 24.88 24.9333 25.4267 26.32 26.52C27.7333 27.5867 28.44 29.1333 28.44 31.16C28.44 33.1333 27.8933 34.7867 26.8 36.12C25.7333 37.4267 24.2533 38.4 22.36 39.04C20.4667 39.68 18.2933 40 15.84 40H1.16ZM8.6 35.12H16.24C18.0267 35.12 19.4267 34.7867 20.44 34.12C21.48 33.4267 22 32.4133 22 31.08C22 30.04 21.6133 29.3067 20.84 28.88C20.0933 28.4267 19.08 28.2 17.8 28.2H9.24L10.2 23.48H17.48C18.6 23.48 19.56 23.3333 20.36 23.04C21.1867 22.7467 21.8133 22.3067 22.24 21.72C22.6667 21.1067 22.88 20.3733 22.88 19.52C22.88 18.5867 22.52 17.92 21.8 17.52C21.08 17.0933 20.0667 16.88 18.76 16.88H12.2L8.6 35.12ZM31.7459 40L37.3459 12H43.8659L38.2659 40H31.7459ZM44.8709 40L50.4709 12H55.8309L67.8709 32.28L65.7509 32.16L69.7509 12H76.1509L70.5509 40H65.2309L53.1509 19.72L55.3109 19.84L51.2709 40H44.8709ZM82.9756 40L87.4956 17.28H78.5356L79.6156 12H104.016L102.936 17.28H94.0156L89.4556 40H82.9756ZM96.8159 40L114.896 12H121.336L128.216 40H121.736L116.296 15.2H118.856L103.736 40H96.8159ZM104.296 34L106.936 29.08H121.376L122.136 34H104.296ZM131.121 40L136.721 12H142.081L154.121 32.28L152.001 32.16L156.001 12H162.401L156.801 40H151.481L139.401 19.72L141.561 19.84L137.521 40H131.121ZM178.146 40.48C175.319 40.48 172.866 39.9733 170.786 38.96C168.732 37.92 167.132 36.4933 165.986 34.68C164.866 32.84 164.306 30.72 164.306 28.32C164.306 25.9467 164.719 23.7333 165.546 21.68C166.399 19.6267 167.599 17.8533 169.146 16.36C170.692 14.84 172.546 13.6533 174.706 12.8C176.866 11.9467 179.266 11.52 181.906 11.52C184.572 11.52 186.879 11.9467 188.826 12.8C190.799 13.6267 192.386 14.8267 193.586 16.4L188.946 20.16C188.012 19.04 186.946 18.24 185.746 17.76C184.572 17.28 183.199 17.04 181.626 17.04C179.972 17.04 178.479 17.32 177.146 17.88C175.839 18.4133 174.719 19.1733 173.786 20.16C172.852 21.1467 172.132 22.3067 171.626 23.64C171.119 24.9467 170.866 26.3733 170.866 27.92C170.866 29.3333 171.172 30.5733 171.786 31.64C172.399 32.68 173.306 33.4933 174.506 34.08C175.732 34.6667 177.226 34.96 178.986 34.96C180.319 34.96 181.599 34.7333 182.826 34.28C184.052 33.8267 185.239 33.12 186.386 32.16L188.866 37.08C187.452 38.1733 185.812 39.0133 183.946 39.6C182.106 40.1867 180.172 40.48 178.146 40.48ZM183.186 36.08L185.266 25.56H191.186L188.866 37.08L183.186 36.08ZM208.805 40.48C205.978 40.48 203.538 39.9733 201.485 38.96C199.458 37.92 197.898 36.4933 196.805 34.68C195.712 32.84 195.165 30.72 195.165 28.32C195.165 25.92 195.578 23.7067 196.405 21.68C197.232 19.6267 198.405 17.8533 199.925 16.36C201.472 14.84 203.298 13.6533 205.405 12.8C207.538 11.9467 209.898 11.52 212.485 11.52C215.312 11.52 217.738 12.04 219.765 13.08C221.818 14.0933 223.392 15.52 224.485 17.36C225.578 19.1733 226.125 21.28 226.125 23.68C226.125 26.08 225.712 28.3067 224.885 30.36C224.058 32.3867 222.872 34.16 221.325 35.68C219.805 37.1733 217.978 38.3467 215.845 39.2C213.738 40.0533 211.392 40.48 208.805 40.48ZM209.365 34.96C210.938 34.96 212.352 34.68 213.605 34.12C214.885 33.5333 215.965 32.7333 216.845 31.72C217.725 30.7067 218.392 29.5467 218.845 28.24C219.325 26.9067 219.565 25.5067 219.565 24.04C219.565 22.6533 219.272 21.44 218.685 20.4C218.098 19.3333 217.232 18.5067 216.085 17.92C214.965 17.3333 213.578 17.04 211.925 17.04C210.352 17.04 208.938 17.3333 207.685 17.92C206.432 18.48 205.352 19.2667 204.445 20.28C203.565 21.2933 202.885 22.4667 202.405 23.8C201.952 25.1067 201.725 26.4933 201.725 27.96C201.725 29.3467 202.018 30.5733 202.605 31.64C203.218 32.68 204.085 33.4933 205.205 34.08C206.352 34.6667 207.738 34.96 209.365 34.96Z"/>
</mask>
<path d="M1.16 40L6.76 12H20.28C23.32 12 25.64 12.5467 27.24 13.64C28.8667 14.7333 29.68 16.32 29.68 18.4C29.68 20.16 29.2133 21.64 28.28 22.84C27.3733 24.04 26.16 24.9467 24.64 25.56C23.12 26.1733 21.4667 26.48 19.68 26.48L20.72 24.88C23.0667 24.88 24.9333 25.4267 26.32 26.52C27.7333 27.5867 28.44 29.1333 28.44 31.16C28.44 33.1333 27.8933 34.7867 26.8 36.12C25.7333 37.4267 24.2533 38.4 22.36 39.04C20.4667 39.68 18.2933 40 15.84 40H1.16ZM8.6 35.12H16.24C18.0267 35.12 19.4267 34.7867 20.44 34.12C21.48 33.4267 22 32.4133 22 31.08C22 30.04 21.6133 29.3067 20.84 28.88C20.0933 28.4267 19.08 28.2 17.8 28.2H9.24L10.2 23.48H17.48C18.6 23.48 19.56 23.3333 20.36 23.04C21.1867 22.7467 21.8133 22.3067 22.24 21.72C22.6667 21.1067 22.88 20.3733 22.88 19.52C22.88 18.5867 22.52 17.92 21.8 17.52C21.08 17.0933 20.0667 16.88 18.76 16.88H12.2L8.6 35.12ZM31.7459 40L37.3459 12H43.8659L38.2659 40H31.7459ZM44.8709 40L50.4709 12H55.8309L67.8709 32.28L65.7509 32.16L69.7509 12H76.1509L70.5509 40H65.2309L53.1509 19.72L55.3109 19.84L51.2709 40H44.8709ZM82.9756 40L87.4956 17.28H78.5356L79.6156 12H104.016L102.936 17.28H94.0156L89.4556 40H82.9756ZM96.8159 40L114.896 12H121.336L128.216 40H121.736L116.296 15.2H118.856L103.736 40H96.8159ZM104.296 34L106.936 29.08H121.376L122.136 34H104.296ZM131.121 40L136.721 12H142.081L154.121 32.28L152.001 32.16L156.001 12H162.401L156.801 40H151.481L139.401 19.72L141.561 19.84L137.521 40H131.121ZM178.146 40.48C175.319 40.48 172.866 39.9733 170.786 38.96C168.732 37.92 167.132 36.4933 165.986 34.68C164.866 32.84 164.306 30.72 164.306 28.32C164.306 25.9467 164.719 23.7333 165.546 21.68C166.399 19.6267 167.599 17.8533 169.146 16.36C170.692 14.84 172.546 13.6533 174.706 12.8C176.866 11.9467 179.266 11.52 181.906 11.52C184.572 11.52 186.879 11.9467 188.826 12.8C190.799 13.6267 192.386 14.8267 193.586 16.4L188.946 20.16C188.012 19.04 186.946 18.24 185.746 17.76C184.572 17.28 183.199 17.04 181.626 17.04C179.972 17.04 178.479 17.32 177.146 17.88C175.839 18.4133 174.719 19.1733 173.786 20.16C172.852 21.1467 172.132 22.3067 171.626 23.64C171.119 24.9467 170.866 26.3733 170.866 27.92C170.866 29.3333 171.172 30.5733 171.786 31.64C172.399 32.68 173.306 33.4933 174.506 34.08C175.732 34.6667 177.226 34.96 178.986 34.96C180.319 34.96 181.599 34.7333 182.826 34.28C184.052 33.8267 185.239 33.12 186.386 32.16L188.866 37.08C187.452 38.1733 185.812 39.0133 183.946 39.6C182.106 40.1867 180.172 40.48 178.146 40.48ZM183.186 36.08L185.266 25.56H191.186L188.866 37.08L183.186 36.08ZM208.805 40.48C205.978 40.48 203.538 39.9733 201.485 38.96C199.458 37.92 197.898 36.4933 196.805 34.68C195.712 32.84 195.165 30.72 195.165 28.32C195.165 25.92 195.578 23.7067 196.405 21.68C197.232 19.6267 198.405 17.8533 199.925 16.36C201.472 14.84 203.298 13.6533 205.405 12.8C207.538 11.9467 209.898 11.52 212.485 11.52C215.312 11.52 217.738 12.04 219.765 13.08C221.818 14.0933 223.392 15.52 224.485 17.36C225.578 19.1733 226.125 21.28 226.125 23.68C226.125 26.08 225.712 28.3067 224.885 30.36C224.058 32.3867 222.872 34.16 221.325 35.68C219.805 37.1733 217.978 38.3467 215.845 39.2C213.738 40.0533 211.392 40.48 208.805 40.48ZM209.365 34.96C210.938 34.96 212.352 34.68 213.605 34.12C214.885 33.5333 215.965 32.7333 216.845 31.72C217.725 30.7067 218.392 29.5467 218.845 28.24C219.325 26.9067 219.565 25.5067 219.565 24.04C219.565 22.6533 219.272 21.44 218.685 20.4C218.098 19.3333 217.232 18.5067 216.085 17.92C214.965 17.3333 213.578 17.04 211.925 17.04C210.352 17.04 208.938 17.3333 207.685 17.92C206.432 18.48 205.352 19.2667 204.445 20.28C203.565 21.2933 202.885 22.4667 202.405 23.8C201.952 25.1067 201.725 26.4933 201.725 27.96C201.725 29.3467 202.018 30.5733 202.605 31.64C203.218 32.68 204.085 33.4933 205.205 34.08C206.352 34.6667 207.738 34.96 209.365 34.96Z" fill="#F71C1C"/>
<path d="M1.16 40L0.179419 39.8039L-0.0598039 41H1.16V40ZM6.76 12V11H5.9402L5.77942 11.8039L6.76 12ZM27.24 13.64L26.6758 14.4657L26.6822 14.4699L27.24 13.64ZM28.28 22.84L27.4906 22.226L27.4821 22.2372L28.28 22.84ZM24.64 25.56L24.2658 24.6326L24.2658 24.6326L24.64 25.56ZM19.68 26.48L18.8416 25.935L17.8373 27.48H19.68V26.48ZM20.72 24.88V23.88H20.1773L19.8816 24.335L20.72 24.88ZM26.32 26.52L25.7008 27.3053L25.7092 27.3118L25.7176 27.3182L26.32 26.52ZM26.8 36.12L26.0267 35.4859L26.0253 35.4876L26.8 36.12ZM22.36 39.04L22.0398 38.0927L22.0398 38.0927L22.36 39.04ZM8.6 35.12L7.61893 34.9264L7.38334 36.12H8.6V35.12ZM20.44 34.12L20.9896 34.9554L20.9947 34.9521L20.44 34.12ZM20.84 28.88L20.321 29.7348L20.3388 29.7456L20.3569 29.7556L20.84 28.88ZM9.24 28.2L8.26006 28.0007L8.01614 29.2H9.24V28.2ZM10.2 23.48V22.48H9.38292L9.22006 23.2807L10.2 23.48ZM20.36 23.04L20.0256 22.0975L20.0157 22.1011L20.36 23.04ZM22.24 21.72L23.0487 22.3082L23.0549 22.2997L23.0609 22.2911L22.24 21.72ZM21.8 17.52L21.2902 18.3803L21.3022 18.3874L21.3144 18.3942L21.8 17.52ZM12.2 16.88V15.88H11.3781L11.2189 16.6864L12.2 16.88ZM2.14058 40.1961L7.74058 12.1961L5.77942 11.8039L0.179419 39.8039L2.14058 40.1961ZM6.76 13H20.28V11H6.76V13ZM20.28 13C23.2245 13 25.312 13.5337 26.6758 14.4656L27.8042 12.8144C25.968 11.5596 23.4155 11 20.28 11V13ZM26.6822 14.4699C28.0129 15.3644 28.68 16.6287 28.68 18.4H30.68C30.68 16.0113 29.7204 14.1023 27.7978 12.81L26.6822 14.4699ZM28.68 18.4C28.68 19.9743 28.2666 21.2285 27.4906 22.2261L29.0694 23.4539C30.1601 22.0515 30.68 20.3457 30.68 18.4H28.68ZM27.4821 22.2372C26.6944 23.2798 25.6334 24.0808 24.2658 24.6326L25.0142 26.4873C26.6866 25.8125 28.0523 24.8002 29.0779 23.4428L27.4821 22.2372ZM24.2658 24.6326C22.875 25.1938 21.35 25.48 19.68 25.48V27.48C21.5833 27.48 23.365 27.1528 25.0142 26.4873L24.2658 24.6326ZM20.5184 27.025L21.5584 25.425L19.8816 24.335L18.8416 25.935L20.5184 27.025ZM20.72 25.88C22.9159 25.88 24.541 26.3908 25.7008 27.3053L26.9392 25.7347C25.3257 24.4626 23.2174 23.88 20.72 23.88V25.88ZM25.7176 27.3182C26.842 28.1668 27.44 29.3954 27.44 31.16H29.44C29.44 28.8713 28.6247 27.0066 26.9224 25.7218L25.7176 27.3182ZM27.44 31.16C27.44 32.9374 26.9526 34.3569 26.0267 35.4859L27.5733 36.7541C28.8341 35.2165 29.44 33.3293 29.44 31.16H27.44ZM26.0253 35.4876C25.098 36.6236 23.7884 37.5016 22.0398 38.0927L22.6802 39.9873C24.7183 39.2984 26.3687 38.2297 27.5747 36.7524L26.0253 35.4876ZM22.0398 38.0927C20.27 38.6909 18.2083 39 15.84 39V41C18.3784 41 20.6633 40.6691 22.6802 39.9873L22.0398 38.0927ZM15.84 39H1.16V41H15.84V39ZM8.6 36.12H16.24V34.12H8.6V36.12ZM16.24 36.12C18.1348 36.12 19.753 35.769 20.9896 34.9554L19.8904 33.2846C19.1004 33.8043 17.9185 34.12 16.24 34.12V36.12ZM20.9947 34.9521C22.3343 34.059 23 32.7211 23 31.08H21C21 32.1055 20.6257 32.7943 19.8853 33.2879L20.9947 34.9521ZM23 31.08C23 29.7532 22.4778 28.6415 21.3231 28.0044L20.3569 29.7556C20.7488 29.9718 21 30.3268 21 31.08H23ZM21.359 28.0252C20.3993 27.4426 19.1831 27.2 17.8 27.2V29.2C18.9769 29.2 19.7873 29.4108 20.321 29.7348L21.359 28.0252ZM17.8 27.2H9.24V29.2H17.8V27.2ZM10.2199 28.3993L11.1799 23.6793L9.22006 23.2807L8.26006 28.0007L10.2199 28.3993ZM10.2 24.48H17.48V22.48H10.2V24.48ZM17.48 24.48C18.6826 24.48 19.7654 24.3231 20.7043 23.9789L20.0157 22.1011C19.3546 22.3435 18.5174 22.48 17.48 22.48V24.48ZM20.6944 23.9824C21.6709 23.6359 22.4804 23.0896 23.0487 22.3082L21.4313 21.1318C21.1463 21.5237 20.7024 21.8574 20.0256 22.0976L20.6944 23.9824ZM23.0609 22.2911C23.6202 21.487 23.88 20.5475 23.88 19.52H21.88C21.88 20.1992 21.7131 20.7263 21.4191 21.1489L23.0609 22.2911ZM23.88 19.52C23.88 18.2821 23.3712 17.2489 22.2856 16.6458L21.3144 18.3942C21.6688 18.5911 21.88 18.8913 21.88 19.52H23.88ZM22.3098 16.6597C21.372 16.104 20.1541 15.88 18.76 15.88V17.88C19.9792 17.88 20.788 18.0827 21.2902 18.3803L22.3098 16.6597ZM18.76 15.88H12.2V17.88H18.76V15.88ZM11.2189 16.6864L7.61893 34.9264L9.58107 35.3136L13.1811 17.0736L11.2189 16.6864ZM31.7459 40L30.7654 39.8039L30.5261 41H31.7459V40ZM37.3459 12V11H36.5261L36.3654 11.8039L37.3459 12ZM43.8659 12L44.8465 12.1961L45.0857 11H43.8659V12ZM38.2659 40V41H39.0857L39.2465 40.1961L38.2659 40ZM32.7265 40.1961L38.3265 12.1961L36.3654 11.8039L30.7654 39.8039L32.7265 40.1961ZM37.3459 13H43.8659V11H37.3459V13ZM42.8854 11.8039L37.2854 39.8039L39.2465 40.1961L44.8465 12.1961L42.8854 11.8039ZM38.2659 39H31.7459V41H38.2659V39ZM44.8709 40L43.8904 39.8039L43.6511 41H44.8709V40ZM50.4709 12V11H49.6511L49.4904 11.8039L50.4709 12ZM55.8309 12L56.6908 11.4895L56.4002 11H55.8309V12ZM67.8709 32.28L67.8144 33.2784L69.6897 33.3845L68.7308 31.7695L67.8709 32.28ZM65.7509 32.16L64.7701 31.9654L64.5462 33.0934L65.6944 33.1584L65.7509 32.16ZM69.7509 12V11H68.9299L68.7701 11.8054L69.7509 12ZM76.1509 12L77.1315 12.1961L77.3707 11H76.1509V12ZM70.5509 40V41H71.3707L71.5315 40.1961L70.5509 40ZM65.2309 40L64.3718 40.5118L64.6626 41H65.2309V40ZM53.1509 19.72L53.2064 18.7215L51.3301 18.6173L52.2918 20.2318L53.1509 19.72ZM55.3109 19.84L56.2914 20.0365L56.5181 18.9055L55.3664 18.8415L55.3109 19.84ZM51.2709 40V41H52.0904L52.2514 40.1965L51.2709 40ZM45.8515 40.1961L51.4515 12.1961L49.4904 11.8039L43.8904 39.8039L45.8515 40.1961ZM50.4709 13H55.8309V11H50.4709V13ZM54.9711 12.5105L67.0111 32.7905L68.7308 31.7695L56.6908 11.4895L54.9711 12.5105ZM67.9275 31.2816L65.8075 31.1616L65.6944 33.1584L67.8144 33.2784L67.9275 31.2816ZM66.7318 32.3546L70.7318 12.1946L68.7701 11.8054L64.7701 31.9654L66.7318 32.3546ZM69.7509 13H76.1509V11H69.7509V13ZM75.1704 11.8039L69.5704 39.8039L71.5315 40.1961L77.1315 12.1961L75.1704 11.8039ZM70.5509 39H65.2309V41H70.5509V39ZM66.0901 39.4882L54.0101 19.2082L52.2918 20.2318L64.3718 40.5118L66.0901 39.4882ZM53.0955 20.7185L55.2555 20.8385L55.3664 18.8415L53.2064 18.7215L53.0955 20.7185ZM54.3304 19.6435L50.2904 39.8035L52.2514 40.1965L56.2914 20.0365L54.3304 19.6435ZM51.2709 39H44.8709V41H51.2709V39ZM82.9756 40L81.9948 39.8049L81.7571 41H82.9756V40ZM87.4956 17.28L88.4764 17.4751L88.7142 16.28H87.4956V17.28ZM78.5356 17.28L77.5559 17.0796L77.3104 18.28H78.5356V17.28ZM79.6156 12V11H78.7995L78.6359 11.7996L79.6156 12ZM104.016 12L104.995 12.2004L105.241 11H104.016V12ZM102.936 17.28V18.28H103.752L103.915 17.4804L102.936 17.28ZM94.0156 17.28V16.28H93.1964L93.0352 17.0832L94.0156 17.28ZM89.4556 40V41H90.2749L90.4361 40.1968L89.4556 40ZM83.9564 40.1951L88.4764 17.4751L86.5148 17.0849L81.9948 39.8049L83.9564 40.1951ZM87.4956 16.28H78.5356V18.28H87.4956V16.28ZM79.5153 17.4804L80.5953 12.2004L78.6359 11.7996L77.5559 17.0796L79.5153 17.4804ZM79.6156 13H104.016V11H79.6156V13ZM103.036 11.7996L101.956 17.0796L103.915 17.4804L104.995 12.2004L103.036 11.7996ZM102.936 16.28H94.0156V18.28H102.936V16.28ZM93.0352 17.0832L88.4752 39.8032L90.4361 40.1968L94.9961 17.4768L93.0352 17.0832ZM89.4556 39H82.9756V41H89.4556V39ZM96.8159 40L95.9759 39.4575L94.9799 41H96.8159V40ZM114.896 12V11H114.351L114.056 11.4575L114.896 12ZM121.336 12L122.307 11.7614L122.12 11H121.336V12ZM128.216 40V41H129.491L129.187 39.7614L128.216 40ZM121.736 40L120.759 40.2143L120.932 41H121.736V40ZM116.296 15.2V14.2H115.053L115.319 15.4143L116.296 15.2ZM118.856 15.2L119.71 15.7206L120.637 14.2H118.856V15.2ZM103.736 40V41H104.297L104.59 40.5206L103.736 40ZM104.296 34L103.415 33.5272L102.624 35H104.296V34ZM106.936 29.08V28.08H106.338L106.055 28.6072L106.936 29.08ZM121.376 29.08L122.364 28.9273L122.233 28.08H121.376V29.08ZM122.136 34V35H123.302L123.124 33.8473L122.136 34ZM97.656 40.5425L115.736 12.5425L114.056 11.4575L95.9759 39.4575L97.656 40.5425ZM114.896 13H121.336V11H114.896V13ZM120.365 12.2386L127.245 40.2386L129.187 39.7614L122.307 11.7614L120.365 12.2386ZM128.216 39H121.736V41H128.216V39ZM122.713 39.7857L117.273 14.9857L115.319 15.4143L120.759 40.2143L122.713 39.7857ZM116.296 16.2H118.856V14.2H116.296V16.2ZM118.002 14.6794L102.882 39.4794L104.59 40.5206L119.71 15.7206L118.002 14.6794ZM103.736 39H96.8159V41H103.736V39ZM105.177 34.4728L107.817 29.5528L106.055 28.6072L103.415 33.5272L105.177 34.4728ZM106.936 30.08H121.376V28.08H106.936V30.08ZM120.388 29.2327L121.148 34.1527L123.124 33.8473L122.364 28.9273L120.388 29.2327ZM122.136 33H104.296V35H122.136V33ZM131.121 40L130.14 39.8039L129.901 41H131.121V40ZM136.721 12V11H135.901L135.74 11.8039L136.721 12ZM142.081 12L142.941 11.4895L142.65 11H142.081V12ZM154.121 32.28L154.064 33.2784L155.94 33.3845L154.981 31.7695L154.121 32.28ZM152.001 32.16L151.02 31.9654L150.796 33.0934L151.944 33.1584L152.001 32.16ZM156.001 12V11H155.18L155.02 11.8054L156.001 12ZM162.401 12L163.382 12.1961L163.621 11H162.401V12ZM156.801 40V41H157.621L157.782 40.1961L156.801 40ZM151.481 40L150.622 40.5118L150.913 41H151.481V40ZM139.401 19.72L139.456 18.7215L137.58 18.6173L138.542 20.2318L139.401 19.72ZM141.561 19.84L142.541 20.0365L142.768 18.9055L141.616 18.8415L141.561 19.84ZM137.521 40V41H138.34L138.501 40.1965L137.521 40ZM132.102 40.1961L137.702 12.1961L135.74 11.8039L130.14 39.8039L132.102 40.1961ZM136.721 13H142.081V11H136.721V13ZM141.221 12.5105L153.261 32.7905L154.981 31.7695L142.941 11.4895L141.221 12.5105ZM154.177 31.2816L152.057 31.1616L151.944 33.1584L154.064 33.2784L154.177 31.2816ZM152.982 32.3546L156.982 12.1946L155.02 11.8054L151.02 31.9654L152.982 32.3546ZM156.001 13H162.401V11H156.001V13ZM161.42 11.8039L155.82 39.8039L157.782 40.1961L163.382 12.1961L161.42 11.8039ZM156.801 39H151.481V41H156.801V39ZM152.34 39.4882L140.26 19.2082L138.542 20.2318L150.622 40.5118L152.34 39.4882ZM139.345 20.7185L141.505 20.8385L141.616 18.8415L139.456 18.7215L139.345 20.7185ZM140.58 19.6435L136.54 39.8035L138.501 40.1965L142.541 20.0365L140.58 19.6435ZM137.521 39H131.121V41H137.521V39ZM170.786 38.96L170.334 39.8521L170.341 39.8556L170.348 39.859L170.786 38.96ZM165.986 34.68L165.131 35.1999L165.136 35.2072L165.14 35.2145L165.986 34.68ZM165.546 21.68L164.622 21.2962L164.618 21.3065L165.546 21.68ZM169.146 16.36L169.84 17.0794L169.847 17.0732L169.146 16.36ZM174.706 12.8L175.073 13.7301L175.073 13.7301L174.706 12.8ZM188.826 12.8L188.424 13.7159L188.432 13.7192L188.439 13.7223L188.826 12.8ZM193.586 16.4L194.215 17.1769L194.97 16.5656L194.381 15.7935L193.586 16.4ZM188.946 20.16L188.177 20.8002L188.809 21.5579L189.575 20.9369L188.946 20.16ZM185.746 17.76L185.367 18.6856L185.374 18.6885L185.746 17.76ZM177.146 17.88L177.524 18.8059L177.533 18.802L177.146 17.88ZM173.786 20.16L174.512 20.8472L174.512 20.8472L173.786 20.16ZM171.626 23.64L172.558 24.0015L172.56 23.9952L171.626 23.64ZM171.786 31.64L170.919 32.1385L170.924 32.148L171.786 31.64ZM174.506 34.08L174.066 34.9784L174.074 34.9821L174.506 34.08ZM182.826 34.28L182.479 33.342L182.479 33.342L182.826 34.28ZM186.386 32.16L187.279 31.7099L186.711 30.5835L185.744 31.3932L186.386 32.16ZM188.866 37.08L189.477 37.871L190.13 37.3663L189.759 36.6299L188.866 37.08ZM183.946 39.6L183.646 38.646L183.642 38.6473L183.946 39.6ZM183.186 36.08L182.205 35.886L182.007 36.8878L183.012 37.0649L183.186 36.08ZM185.266 25.56V24.56H184.444L184.285 25.366L185.266 25.56ZM191.186 25.56L192.166 25.7574L192.407 24.56H191.186V25.56ZM188.866 37.08L188.692 38.0649L189.653 38.2341L189.846 37.2774L188.866 37.08ZM178.146 39.48C175.438 39.48 173.14 38.9948 171.224 38.061L170.348 39.859C172.591 40.9519 175.2 41.48 178.146 41.48V39.48ZM171.237 38.0679C169.333 37.1033 167.874 35.7952 166.831 34.1455L165.14 35.2145C166.391 37.1914 168.132 38.7367 170.334 39.8521L171.237 38.0679ZM166.84 34.1601C165.826 32.4941 165.306 30.5581 165.306 28.32H163.306C163.306 30.8819 163.905 33.1859 165.131 35.1999L166.84 34.1601ZM165.306 28.32C165.306 26.0653 165.698 23.9797 166.473 22.0535L164.618 21.3065C163.74 23.4869 163.306 25.828 163.306 28.32H165.306ZM166.469 22.0638C167.272 20.1324 168.395 18.4744 169.84 17.0794L168.451 15.6406C166.803 17.2323 165.526 19.121 164.622 21.2962L166.469 22.0638ZM169.847 17.0732C171.291 15.6536 173.029 14.5377 175.073 13.7301L174.338 11.8699C172.063 12.769 170.094 14.0264 168.445 15.6468L169.847 17.0732ZM175.073 13.7301C177.101 12.9288 179.374 12.52 181.906 12.52V10.52C179.157 10.52 176.63 10.9645 174.338 11.8699L175.073 13.7301ZM181.906 12.52C184.468 12.52 186.632 12.9302 188.424 13.7159L189.227 11.8841C187.126 10.9631 184.676 10.52 181.906 10.52V12.52ZM188.439 13.7223C190.265 14.487 191.705 15.5836 192.791 17.0064L194.381 15.7935C193.066 14.0697 191.333 12.7663 189.212 11.8777L188.439 13.7223ZM192.956 15.6231L188.316 19.3831L189.575 20.9369L194.215 17.1769L192.956 15.6231ZM189.714 19.5198C188.688 18.2888 187.49 17.3807 186.117 16.8315L185.374 18.6885C186.401 19.0993 187.337 19.7912 188.177 20.8002L189.714 19.5198ZM186.124 16.8345C184.806 16.295 183.299 16.04 181.626 16.04V18.04C183.099 18.04 184.339 18.265 185.367 18.6855L186.124 16.8345ZM181.626 16.04C179.858 16.04 178.231 16.3397 176.758 16.958L177.533 18.802C178.727 18.3003 180.086 18.04 181.626 18.04V16.04ZM176.768 16.9542C175.334 17.5391 174.094 18.3786 173.059 19.4728L174.512 20.8472C175.344 19.9681 176.343 19.2875 177.524 18.8058L176.768 16.9542ZM173.059 19.4728C172.031 20.5601 171.242 21.8344 170.691 23.2848L172.56 23.9952C173.023 22.7789 173.674 21.7333 174.512 20.8472L173.059 19.4728ZM170.693 23.2785C170.137 24.7118 169.866 26.2625 169.866 27.92H171.866C171.866 26.4842 172.1 25.1815 172.558 24.0015L170.693 23.2785ZM169.866 27.92C169.866 29.4819 170.206 30.8988 170.919 32.1385L172.653 31.1415C172.139 30.2478 171.866 29.1848 171.866 27.92H169.866ZM170.924 32.148C171.647 33.3743 172.71 34.3152 174.066 34.9784L174.945 33.1816C173.901 32.6715 173.15 31.9857 172.647 31.132L170.924 32.148ZM174.074 34.9821C175.469 35.6493 177.119 35.96 178.986 35.96V33.96C177.333 33.96 175.995 33.684 174.937 33.1779L174.074 34.9821ZM178.986 35.96C180.435 35.96 181.832 35.7131 183.172 35.218L182.479 33.342C181.365 33.7535 180.203 33.96 178.986 33.96V35.96ZM183.172 35.218C184.521 34.7197 185.805 33.9499 187.028 32.9268L185.744 31.3932C184.672 32.2901 183.584 32.9337 182.479 33.342L183.172 35.218ZM185.493 32.6101L187.973 37.5301L189.759 36.6299L187.279 31.7099L185.493 32.6101ZM188.254 36.289C186.942 37.3034 185.41 38.0914 183.646 38.646L184.245 40.554C186.214 39.9352 187.962 39.0432 189.477 37.871L188.254 36.289ZM183.642 38.6473C181.905 39.2011 180.074 39.48 178.146 39.48V41.48C180.27 41.48 182.306 41.1722 184.249 40.5527L183.642 38.6473ZM184.167 36.274L186.247 25.754L184.285 25.366L182.205 35.886L184.167 36.274ZM185.266 26.56H191.186V24.56H185.266V26.56ZM190.205 25.3626L187.885 36.8826L189.846 37.2774L192.166 25.7574L190.205 25.3626ZM189.039 36.0951L183.359 35.0951L183.012 37.0649L188.692 38.0649L189.039 36.0951ZM201.485 38.96L201.028 39.8497L201.035 39.8533L201.042 39.8567L201.485 38.96ZM196.805 34.68L195.945 35.1908L195.949 35.1963L196.805 34.68ZM196.405 21.68L197.331 22.0577L197.333 22.0535L196.405 21.68ZM199.925 16.36L200.626 17.0733L200.626 17.0732L199.925 16.36ZM205.405 12.8L205.034 11.8715L205.03 11.8732L205.405 12.8ZM219.765 13.08L219.308 13.9697L219.315 13.9733L219.322 13.9767L219.765 13.08ZM224.485 17.36L223.625 17.8708L223.629 17.8763L224.485 17.36ZM224.885 30.36L225.811 30.7377L225.813 30.7335L224.885 30.36ZM221.325 35.68L222.026 36.3933L222.026 36.3932L221.325 35.68ZM215.845 39.2L215.474 38.2715L215.47 38.2732L215.845 39.2ZM213.605 34.12L214.013 35.0331L214.022 35.0291L213.605 34.12ZM216.845 31.72L217.6 32.3757L217.6 32.3757L216.845 31.72ZM218.845 28.24L217.904 27.9013L217.9 27.9122L218.845 28.24ZM218.685 20.4L217.809 20.8819L217.814 20.8913L218.685 20.4ZM216.085 17.92L215.621 18.8059L215.63 18.8102L216.085 17.92ZM207.685 17.92L208.093 18.833L208.101 18.8294L208.109 18.8257L207.685 17.92ZM204.445 20.28L203.7 19.6132L203.695 19.6187L203.69 19.6243L204.445 20.28ZM202.405 23.8L201.464 23.4613L201.46 23.4722L202.405 23.8ZM202.605 31.64L201.729 32.1219L201.736 32.1351L201.744 32.148L202.605 31.64ZM205.205 34.08L204.741 34.9659L204.75 34.9702L205.205 34.08ZM208.805 39.48C206.097 39.48 203.815 38.9946 201.928 38.0633L201.042 39.8567C203.262 40.9521 205.86 41.48 208.805 41.48V39.48ZM201.942 38.0703C200.067 37.1085 198.651 35.8057 197.661 34.1637L195.949 35.1963C197.145 37.181 198.849 38.7315 201.028 39.8497L201.942 38.0703ZM197.665 34.1692C196.674 32.5019 196.165 30.5625 196.165 28.32H194.165C194.165 30.8775 194.749 33.1781 195.945 35.1908L197.665 34.1692ZM196.165 28.32C196.165 26.037 196.558 23.9533 197.331 22.0577L195.479 21.3023C194.599 23.46 194.165 25.803 194.165 28.32H196.165ZM197.333 22.0535C198.11 20.1228 199.208 18.4664 200.626 17.0733L199.224 15.6467C197.602 17.2402 196.353 19.1306 195.477 21.3065L197.333 22.0535ZM200.626 17.0732C202.075 15.6495 203.789 14.5334 205.78 13.7268L205.03 11.8732C202.807 12.7733 200.869 14.0305 199.224 15.6468L200.626 17.0732ZM205.776 13.7285C207.778 12.928 210.01 12.52 212.485 12.52V10.52C209.787 10.52 207.299 10.9654 205.034 11.8715L205.776 13.7285ZM212.485 12.52C215.19 12.52 217.453 13.0176 219.308 13.9697L220.222 12.1903C218.024 11.0624 215.433 10.52 212.485 10.52V12.52ZM219.322 13.9767C221.215 14.9107 222.638 16.2088 223.625 17.8708L225.345 16.8492C224.146 14.8312 222.422 13.2759 220.208 12.1833L219.322 13.9767ZM223.629 17.8763C224.616 19.5139 225.125 21.4371 225.125 23.68H227.125C227.125 21.1228 226.541 18.8328 225.341 16.8437L223.629 17.8763ZM225.125 23.68C225.125 25.9629 224.732 28.0616 223.957 29.9865L225.813 30.7335C226.691 28.5518 227.125 26.1971 227.125 23.68H225.125ZM223.959 29.9823C223.183 31.8842 222.073 33.5431 220.624 34.9668L222.026 36.3932C223.671 34.7769 224.933 32.8891 225.811 30.7377L223.959 29.9823ZM220.624 34.9667C219.206 36.3601 217.494 37.4635 215.474 38.2715L216.216 40.1285C218.463 39.2298 220.404 37.9866 222.026 36.3933L220.624 34.9667ZM215.47 38.2732C213.497 39.072 211.281 39.48 208.805 39.48V41.48C211.503 41.48 213.979 41.0347 216.22 40.1268L215.47 38.2732ZM209.365 35.96C211.058 35.96 212.614 35.6582 214.013 35.033L213.197 33.207C212.09 33.7018 210.818 33.96 209.365 33.96V35.96ZM214.022 35.0291C215.425 34.386 216.622 33.5019 217.6 32.3757L216.09 31.0643C215.308 31.9648 214.345 32.6807 213.188 33.2109L214.022 35.0291ZM217.6 32.3757C218.566 31.2632 219.296 29.9911 219.79 28.5678L217.9 27.9122C217.487 29.1022 216.884 30.1501 216.09 31.0643L217.6 32.3757ZM219.786 28.5787C220.306 27.133 220.565 25.618 220.565 24.04H218.565C218.565 25.3953 218.344 26.6804 217.904 27.9013L219.786 28.5787ZM220.565 24.04C220.565 22.5092 220.24 21.1213 219.556 19.9087L217.814 20.8913C218.303 21.7587 218.565 22.7975 218.565 24.04H220.565ZM219.561 19.9181C218.873 18.6659 217.854 17.7019 216.54 17.0297L215.63 18.8102C216.609 19.3115 217.324 20.0008 217.809 20.8819L219.561 19.9181ZM216.549 17.0342C215.249 16.353 213.692 16.04 211.925 16.04V18.04C213.465 18.04 214.681 18.3137 215.621 18.8058L216.549 17.0342ZM211.925 16.04C210.225 16.04 208.664 16.3575 207.261 17.0143L208.109 18.8257C209.213 18.3091 210.478 18.04 211.925 18.04V16.04ZM207.277 17.007C205.896 17.6238 204.701 18.4939 203.7 19.6132L205.19 20.9468C206.002 20.0394 206.967 19.3362 208.093 18.833L207.277 17.007ZM203.69 19.6243C202.725 20.736 201.984 22.0183 201.464 23.4613L203.346 24.1387C203.786 22.915 204.405 21.8506 205.2 20.9357L203.69 19.6243ZM201.46 23.4722C200.968 24.8905 200.725 26.3885 200.725 27.96H202.725C202.725 26.5981 202.935 25.3228 203.35 24.1278L201.46 23.4722ZM200.725 27.96C200.725 29.4914 201.05 30.8881 201.729 32.1219L203.481 31.1581C202.986 30.2585 202.725 29.2019 202.725 27.96H200.725ZM201.744 32.148C202.456 33.3563 203.464 34.297 204.741 34.9658L205.669 33.1942C204.706 32.6897 203.98 32.0037 203.466 31.132L201.744 32.148ZM204.75 34.9702C206.069 35.6455 207.621 35.96 209.365 35.96V33.96C207.856 33.96 206.634 33.6878 205.66 33.1898L204.75 34.9702Z" fill="#F71C1C" mask="url(#path-1-outside-1_2966_74)"/>
<mask id="path-3-outside-2_2966_74" maskUnits="userSpaceOnUse" x="-1" y="61" width="273" height="32" fill="black">
<rect fill="white" x="-1" y="61" width="273" height="32"/>
<path d="M1.16 91L6.76 63H18.48C21.36 63 23.8267 63.48 25.88 64.44C27.96 65.3733 29.5467 66.72 30.64 68.48C31.7333 70.2133 32.28 72.28 32.28 74.68C32.28 77.16 31.8533 79.4 31 81.4C30.1733 83.4 28.9867 85.12 27.44 86.56C25.8933 87.9733 24.0533 89.0667 21.92 89.84C19.7867 90.6133 17.4267 91 14.84 91H1.16ZM8.72 85.68H15.04C17.3067 85.68 19.2267 85.2133 20.8 84.28C22.4 83.3467 23.6133 82.08 24.44 80.48C25.2933 78.88 25.72 77.0667 25.72 75.04C25.72 73.6533 25.4267 72.4667 24.84 71.48C24.2533 70.4667 23.36 69.6933 22.16 69.16C20.9867 68.6 19.52 68.32 17.76 68.32H12.2L8.72 85.68ZM34.2069 91L39.8069 63H46.3269L40.7269 91H34.2069ZM62.0519 91.48C59.1985 91.48 56.7319 90.9733 54.6519 89.96C52.5985 88.92 51.0119 87.4933 49.8919 85.68C48.7719 83.84 48.2119 81.72 48.2119 79.32C48.2119 76.9467 48.6252 74.7333 49.4519 72.68C50.3052 70.6267 51.4919 68.8533 53.0119 67.36C54.5585 65.84 56.3852 64.6533 58.4919 63.8C60.6252 62.9467 62.9985 62.52 65.6119 62.52C68.1185 62.52 70.3319 62.9467 72.2519 63.8C74.1719 64.6533 75.6252 65.88 76.6119 67.48L71.9319 71.32C71.2119 70.2533 70.2919 69.44 69.1719 68.88C68.0519 68.32 66.7185 68.04 65.1719 68.04C63.5985 68.04 62.1719 68.32 60.8919 68.88C59.6119 69.4133 58.5052 70.1867 57.5719 71.2C56.6652 72.1867 55.9719 73.3467 55.4919 74.68C55.0119 76.0133 54.7719 77.4267 54.7719 78.92C54.7719 80.3333 55.0785 81.5733 55.6919 82.64C56.3052 83.68 57.1985 84.4933 58.3719 85.08C59.5452 85.6667 60.9585 85.96 62.6119 85.96C64.0519 85.96 65.3985 85.7067 66.6519 85.2C67.9052 84.6667 69.0385 83.84 70.0519 82.72L73.8919 86.64C72.4252 88.3467 70.6785 89.5867 68.6519 90.36C66.6519 91.1067 64.4519 91.48 62.0519 91.48ZM82.1944 91L86.7144 68.28H77.7544L78.8344 63H103.234L102.154 68.28H93.2344L88.6744 91H82.1944ZM101.121 91L106.721 63H113.241L107.641 91H101.121ZM128.766 91.48C125.939 91.48 123.499 90.9733 121.446 89.96C119.419 88.92 117.859 87.4933 116.766 85.68C115.673 83.84 115.126 81.72 115.126 79.32C115.126 76.92 115.539 74.7067 116.366 72.68C117.193 70.6267 118.366 68.8533 119.886 67.36C121.433 65.84 123.259 64.6533 125.366 63.8C127.499 62.9467 129.859 62.52 132.446 62.52C135.273 62.52 137.699 63.04 139.726 64.08C141.779 65.0933 143.353 66.52 144.446 68.36C145.539 70.1733 146.086 72.28 146.086 74.68C146.086 77.08 145.673 79.3067 144.846 81.36C144.019 83.3867 142.833 85.16 141.286 86.68C139.766 88.1733 137.939 89.3467 135.806 90.2C133.699 91.0533 131.353 91.48 128.766 91.48ZM129.326 85.96C130.899 85.96 132.313 85.68 133.566 85.12C134.846 84.5333 135.926 83.7333 136.806 82.72C137.686 81.7067 138.353 80.5467 138.806 79.24C139.286 77.9067 139.526 76.5067 139.526 75.04C139.526 73.6533 139.233 72.44 138.646 71.4C138.059 70.3333 137.193 69.5067 136.046 68.92C134.926 68.3333 133.539 68.04 131.886 68.04C130.313 68.04 128.899 68.3333 127.646 68.92C126.393 69.48 125.313 70.2667 124.406 71.28C123.526 72.2933 122.846 73.4667 122.366 74.8C121.913 76.1067 121.686 77.4933 121.686 78.96C121.686 80.3467 121.979 81.5733 122.566 82.64C123.179 83.68 124.046 84.4933 125.166 85.08C126.313 85.6667 127.699 85.96 129.326 85.96ZM147.996 91L153.596 63H158.956L170.996 83.28L168.876 83.16L172.876 63H179.276L173.676 91H168.356L156.276 70.72L158.436 70.84L154.396 91H147.996ZM176.621 91L194.701 63H201.141L208.021 91H201.541L196.101 66.2H198.661L183.541 91H176.621ZM184.101 85L186.741 80.08H201.181L201.941 85H184.101ZM210.926 91L216.526 63H227.926C231.419 63 234.112 63.76 236.006 65.28C237.926 66.8 238.886 68.9333 238.886 71.68C238.886 74.0267 238.326 76.0667 237.206 77.8C236.112 79.5067 234.539 80.8267 232.486 81.76C230.459 82.6933 228.059 83.16 225.286 83.16H216.166L219.566 80.32L217.446 91H210.926ZM228.926 91L223.206 80.84H230.006L235.766 91H228.926ZM219.406 81.08L217.166 78H225.526C227.686 78 229.352 77.52 230.526 76.56C231.726 75.5733 232.326 74.1467 232.326 72.28C232.326 70.92 231.859 69.92 230.926 69.28C230.019 68.6133 228.739 68.28 227.086 68.28H219.206L222.606 65.12L219.406 81.08ZM246.909 91L249.189 79.48L249.909 83.56L241.669 63H248.149L254.429 78.72L250.509 78.76L263.189 63H269.869L253.469 83.6L255.669 79.48L253.389 91H246.909Z"/>
</mask>
<path d="M1.16 91L6.76 63H18.48C21.36 63 23.8267 63.48 25.88 64.44C27.96 65.3733 29.5467 66.72 30.64 68.48C31.7333 70.2133 32.28 72.28 32.28 74.68C32.28 77.16 31.8533 79.4 31 81.4C30.1733 83.4 28.9867 85.12 27.44 86.56C25.8933 87.9733 24.0533 89.0667 21.92 89.84C19.7867 90.6133 17.4267 91 14.84 91H1.16ZM8.72 85.68H15.04C17.3067 85.68 19.2267 85.2133 20.8 84.28C22.4 83.3467 23.6133 82.08 24.44 80.48C25.2933 78.88 25.72 77.0667 25.72 75.04C25.72 73.6533 25.4267 72.4667 24.84 71.48C24.2533 70.4667 23.36 69.6933 22.16 69.16C20.9867 68.6 19.52 68.32 17.76 68.32H12.2L8.72 85.68ZM34.2069 91L39.8069 63H46.3269L40.7269 91H34.2069ZM62.0519 91.48C59.1985 91.48 56.7319 90.9733 54.6519 89.96C52.5985 88.92 51.0119 87.4933 49.8919 85.68C48.7719 83.84 48.2119 81.72 48.2119 79.32C48.2119 76.9467 48.6252 74.7333 49.4519 72.68C50.3052 70.6267 51.4919 68.8533 53.0119 67.36C54.5585 65.84 56.3852 64.6533 58.4919 63.8C60.6252 62.9467 62.9985 62.52 65.6119 62.52C68.1185 62.52 70.3319 62.9467 72.2519 63.8C74.1719 64.6533 75.6252 65.88 76.6119 67.48L71.9319 71.32C71.2119 70.2533 70.2919 69.44 69.1719 68.88C68.0519 68.32 66.7185 68.04 65.1719 68.04C63.5985 68.04 62.1719 68.32 60.8919 68.88C59.6119 69.4133 58.5052 70.1867 57.5719 71.2C56.6652 72.1867 55.9719 73.3467 55.4919 74.68C55.0119 76.0133 54.7719 77.4267 54.7719 78.92C54.7719 80.3333 55.0785 81.5733 55.6919 82.64C56.3052 83.68 57.1985 84.4933 58.3719 85.08C59.5452 85.6667 60.9585 85.96 62.6119 85.96C64.0519 85.96 65.3985 85.7067 66.6519 85.2C67.9052 84.6667 69.0385 83.84 70.0519 82.72L73.8919 86.64C72.4252 88.3467 70.6785 89.5867 68.6519 90.36C66.6519 91.1067 64.4519 91.48 62.0519 91.48ZM82.1944 91L86.7144 68.28H77.7544L78.8344 63H103.234L102.154 68.28H93.2344L88.6744 91H82.1944ZM101.121 91L106.721 63H113.241L107.641 91H101.121ZM128.766 91.48C125.939 91.48 123.499 90.9733 121.446 89.96C119.419 88.92 117.859 87.4933 116.766 85.68C115.673 83.84 115.126 81.72 115.126 79.32C115.126 76.92 115.539 74.7067 116.366 72.68C117.193 70.6267 118.366 68.8533 119.886 67.36C121.433 65.84 123.259 64.6533 125.366 63.8C127.499 62.9467 129.859 62.52 132.446 62.52C135.273 62.52 137.699 63.04 139.726 64.08C141.779 65.0933 143.353 66.52 144.446 68.36C145.539 70.1733 146.086 72.28 146.086 74.68C146.086 77.08 145.673 79.3067 144.846 81.36C144.019 83.3867 142.833 85.16 141.286 86.68C139.766 88.1733 137.939 89.3467 135.806 90.2C133.699 91.0533 131.353 91.48 128.766 91.48ZM129.326 85.96C130.899 85.96 132.313 85.68 133.566 85.12C134.846 84.5333 135.926 83.7333 136.806 82.72C137.686 81.7067 138.353 80.5467 138.806 79.24C139.286 77.9067 139.526 76.5067 139.526 75.04C139.526 73.6533 139.233 72.44 138.646 71.4C138.059 70.3333 137.193 69.5067 136.046 68.92C134.926 68.3333 133.539 68.04 131.886 68.04C130.313 68.04 128.899 68.3333 127.646 68.92C126.393 69.48 125.313 70.2667 124.406 71.28C123.526 72.2933 122.846 73.4667 122.366 74.8C121.913 76.1067 121.686 77.4933 121.686 78.96C121.686 80.3467 121.979 81.5733 122.566 82.64C123.179 83.68 124.046 84.4933 125.166 85.08C126.313 85.6667 127.699 85.96 129.326 85.96ZM147.996 91L153.596 63H158.956L170.996 83.28L168.876 83.16L172.876 63H179.276L173.676 91H168.356L156.276 70.72L158.436 70.84L154.396 91H147.996ZM176.621 91L194.701 63H201.141L208.021 91H201.541L196.101 66.2H198.661L183.541 91H176.621ZM184.101 85L186.741 80.08H201.181L201.941 85H184.101ZM210.926 91L216.526 63H227.926C231.419 63 234.112 63.76 236.006 65.28C237.926 66.8 238.886 68.9333 238.886 71.68C238.886 74.0267 238.326 76.0667 237.206 77.8C236.112 79.5067 234.539 80.8267 232.486 81.76C230.459 82.6933 228.059 83.16 225.286 83.16H216.166L219.566 80.32L217.446 91H210.926ZM228.926 91L223.206 80.84H230.006L235.766 91H228.926ZM219.406 81.08L217.166 78H225.526C227.686 78 229.352 77.52 230.526 76.56C231.726 75.5733 232.326 74.1467 232.326 72.28C232.326 70.92 231.859 69.92 230.926 69.28C230.019 68.6133 228.739 68.28 227.086 68.28H219.206L222.606 65.12L219.406 81.08ZM246.909 91L249.189 79.48L249.909 83.56L241.669 63H248.149L254.429 78.72L250.509 78.76L263.189 63H269.869L253.469 83.6L255.669 79.48L253.389 91H246.909Z" fill="white"/>
<path d="M1.16 91L0.179419 90.8039L-0.0598039 92H1.16V91ZM6.76 63V62H5.9402L5.77942 62.8039L6.76 63ZM25.88 64.44L25.4565 65.3459L25.4635 65.3492L25.4706 65.3524L25.88 64.44ZM30.64 68.48L29.7905 69.0077L29.7942 69.0135L30.64 68.48ZM31 81.4L30.0802 81.0075L30.0758 81.018L31 81.4ZM27.44 86.56L28.1146 87.2982L28.1214 87.2919L27.44 86.56ZM21.92 89.84L22.2608 90.7801L22.2608 90.7801L21.92 89.84ZM8.72 85.68L7.73951 85.4834L7.49965 86.68H8.72V85.68ZM20.8 84.28L20.2961 83.4162L20.2898 83.4199L20.8 84.28ZM24.44 80.48L23.5576 80.0094L23.5516 80.021L24.44 80.48ZM24.84 71.48L23.9745 71.9811L23.9805 71.9911L24.84 71.48ZM22.16 69.16L21.7293 70.0625L21.7415 70.0683L21.7539 70.0738L22.16 69.16ZM12.2 68.32V67.32H11.3806L11.2195 68.1234L12.2 68.32ZM2.14058 91.1961L7.74058 63.1961L5.77942 62.8039L0.179419 90.8039L2.14058 91.1961ZM6.76 64H18.48V62H6.76V64ZM18.48 64C21.252 64 23.5665 64.4623 25.4565 65.3459L26.3035 63.5341C24.0868 62.4977 21.4681 62 18.48 62V64ZM25.4706 65.3524C27.3879 66.2127 28.8128 67.4337 29.7906 69.0077L31.4894 67.9523C30.2805 66.0063 28.5321 64.534 26.2894 63.5276L25.4706 65.3524ZM29.7942 69.0135C30.7706 70.5614 31.28 72.436 31.28 74.68H33.28C33.28 72.124 32.6961 69.8652 31.4858 67.9465L29.7942 69.0135ZM31.28 74.68C31.28 77.044 30.8737 79.1479 30.0802 81.0076L31.9198 81.7924C32.833 79.6521 33.28 77.276 33.28 74.68H31.28ZM30.0758 81.018C29.3027 82.8886 28.1976 84.4884 26.7586 85.8281L28.1214 87.2919C29.7758 85.7516 31.044 83.9114 31.9242 81.782L30.0758 81.018ZM26.7654 85.8218C25.3235 87.1394 23.5994 88.1675 21.5792 88.8999L22.2608 90.7801C24.5072 89.9658 26.4632 88.8072 28.1146 87.2982L26.7654 85.8218ZM21.5792 88.8999C19.5693 89.6285 17.3265 90 14.84 90V92C17.5268 92 20.0041 91.5982 22.2608 90.7801L21.5792 88.8999ZM14.84 90H1.16V92H14.84V90ZM8.72 86.68H15.04V84.68H8.72V86.68ZM15.04 86.68C17.4436 86.68 19.5495 86.1845 21.3102 85.1401L20.2898 83.4199C18.9038 84.2421 17.1698 84.68 15.04 84.68V86.68ZM21.3039 85.1438C23.0629 84.1177 24.412 82.7127 25.3284 80.939L23.5516 80.021C22.8147 81.4473 21.7371 82.5757 20.2961 83.4162L21.3039 85.1438ZM25.3224 80.9506C26.2617 79.1894 26.72 77.2112 26.72 75.04H24.72C24.72 76.9221 24.325 78.5706 23.5576 80.0094L25.3224 80.9506ZM26.72 75.04C26.72 73.5109 26.3956 72.1395 25.6995 70.9689L23.9805 71.9911C24.4578 72.7938 24.72 73.7957 24.72 75.04H26.72ZM25.7054 70.979C25.0004 69.7611 23.9345 68.8543 22.5661 68.2462L21.7539 70.0738C22.7855 70.5323 23.5063 71.1722 23.9746 71.981L25.7054 70.979ZM22.5907 68.2575C21.2441 67.6148 19.6191 67.32 17.76 67.32V69.32C19.4209 69.32 20.7293 69.5852 21.7293 70.0625L22.5907 68.2575ZM17.76 67.32H12.2V69.32H17.76V67.32ZM11.2195 68.1234L7.73951 85.4834L9.70049 85.8766L13.1805 68.5165L11.2195 68.1234ZM34.2069 91L33.2263 90.8039L32.9871 92H34.2069V91ZM39.8069 63V62H38.9871L38.8263 62.8039L39.8069 63ZM46.3269 63L47.3075 63.1961L47.5467 62H46.3269V63ZM40.7269 91V92H41.5467L41.7075 91.1961L40.7269 91ZM35.1875 91.1961L40.7875 63.1961L38.8263 62.8039L33.2263 90.8039L35.1875 91.1961ZM39.8069 64H46.3269V62H39.8069V64ZM45.3463 62.8039L39.7463 90.8039L41.7075 91.1961L47.3075 63.1961L45.3463 62.8039ZM40.7269 90H34.2069V92H40.7269V90ZM54.6519 89.96L54.2 90.8521L54.2069 90.8556L54.2139 90.859L54.6519 89.96ZM49.8919 85.68L49.0377 86.2L49.0411 86.2055L49.8919 85.68ZM49.4519 72.68L48.5284 72.2962L48.5242 72.3065L49.4519 72.68ZM53.0119 67.36L53.7127 68.0733L53.7128 68.0732L53.0119 67.36ZM58.4919 63.8L58.1205 62.8715L58.1164 62.8732L58.4919 63.8ZM72.2519 63.8L71.8457 64.7138L71.8457 64.7138L72.2519 63.8ZM76.6119 67.48L77.2462 68.2531L77.9217 67.6988L77.463 66.9551L76.6119 67.48ZM71.9319 71.32L71.103 71.8795L71.7173 72.7896L72.5662 72.0931L71.9319 71.32ZM69.1719 68.88L69.6191 67.9856L69.6191 67.9856L69.1719 68.88ZM60.8919 68.88L61.2765 69.8031L61.2846 69.7997L61.2927 69.7962L60.8919 68.88ZM57.5719 71.2L56.8363 70.5225L56.8355 70.5234L57.5719 71.2ZM55.6919 82.64L54.8249 83.1385L54.8305 83.148L55.6919 82.64ZM66.6519 85.2L67.0267 86.1271L67.0351 86.1237L67.0434 86.1202L66.6519 85.2ZM70.0519 82.72L70.7662 82.0202L70.023 81.2615L69.3103 82.0491L70.0519 82.72ZM73.8919 86.64L74.6503 87.2918L75.2484 86.5958L74.6062 85.9402L73.8919 86.64ZM68.6519 90.36L69.0016 91.2969L69.0084 91.2943L68.6519 90.36ZM62.0519 90.48C59.3156 90.48 57.0053 89.9942 55.0898 89.061L54.2139 90.859C56.4584 91.9525 59.0814 92.48 62.0519 92.48V90.48ZM55.1037 89.0679C53.201 88.1042 51.7582 86.7988 50.7427 85.1545L49.0411 86.2055C50.2655 88.1879 51.9961 89.7358 54.2 90.8521L55.1037 89.0679ZM50.7461 85.1601C49.732 83.4941 49.2119 81.5581 49.2119 79.32H47.2119C47.2119 81.8819 47.8117 84.1859 49.0377 86.1999L50.7461 85.1601ZM49.2119 79.32C49.2119 77.0653 49.604 74.9797 50.3795 73.0535L48.5242 72.3065C47.6464 74.4869 47.2119 76.828 47.2119 79.32H49.2119ZM50.3753 73.0638C51.1795 71.1286 52.2924 69.4687 53.7127 68.0733L52.3111 66.6467C50.6914 68.2379 49.4309 70.1247 48.5284 72.2962L50.3753 73.0638ZM53.7128 68.0732C55.1615 66.6495 56.8761 65.5334 58.8673 64.7268L58.1164 62.8732C55.8943 63.7733 53.9555 65.0305 52.3109 66.6468L53.7128 68.0732ZM58.8633 64.7285C60.8634 63.9284 63.1084 63.52 65.6119 63.52V61.52C62.8887 61.52 60.387 61.9649 58.1205 62.8715L58.8633 64.7285ZM65.6119 63.52C68.0052 63.52 70.0758 63.9272 71.8457 64.7138L72.658 62.8862C70.5879 61.9661 68.2319 61.52 65.6119 61.52V63.52ZM71.8457 64.7138C73.6041 65.4953 74.8921 66.5963 75.7607 68.0049L77.463 66.9551C76.3584 65.1637 74.7396 63.8113 72.658 62.8862L71.8457 64.7138ZM75.9776 66.7069L71.2976 70.5469L72.5662 72.0931L77.2462 68.2531L75.9776 66.7069ZM72.7607 70.7605C71.9472 69.5554 70.8974 68.6247 69.6191 67.9856L68.7247 69.7744C69.6864 70.2553 70.4765 70.9513 71.103 71.8795L72.7607 70.7605ZM69.6191 67.9856C68.3314 67.3417 66.838 67.04 65.1719 67.04V69.04C66.5991 69.04 67.7723 69.2983 68.7247 69.7744L69.6191 67.9856ZM65.1719 67.04C63.478 67.04 61.9125 67.342 60.4911 67.9638L61.2927 69.7962C62.4313 69.298 63.7191 69.04 65.1719 69.04V67.04ZM60.5073 67.9569C59.0948 68.5454 57.8682 69.4022 56.8363 70.5225L58.3074 71.8775C59.1422 70.9711 60.1289 70.2812 61.2765 69.8031L60.5073 67.9569ZM56.8355 70.5234C55.8338 71.6135 55.0734 72.8901 54.551 74.3413L56.4328 75.0187C56.8704 73.8032 57.4966 72.7598 58.3082 71.8766L56.8355 70.5234ZM54.551 74.3413C54.0298 75.789 53.7719 77.3175 53.7719 78.92H55.7719C55.7719 77.5359 55.9939 76.2377 56.4328 75.0187L54.551 74.3413ZM53.7719 78.92C53.7719 80.4819 54.1122 81.8988 54.825 83.1385L56.5588 82.1415C56.0449 81.2478 55.7719 80.1848 55.7719 78.92H53.7719ZM54.8305 83.148C55.5502 84.3684 56.5945 85.3093 57.9247 85.9744L58.8191 84.1856C57.8026 83.6773 57.0602 82.9916 56.5532 82.132L54.8305 83.148ZM57.9247 85.9744C59.2682 86.6462 60.8427 86.96 62.6119 86.96V84.96C61.0744 84.96 59.8222 84.6871 58.8191 84.1856L57.9247 85.9744ZM62.6119 86.96C64.1719 86.96 65.6466 86.685 67.0267 86.1271L66.2771 84.2729C65.1505 84.7283 63.9319 84.96 62.6119 84.96V86.96ZM67.0434 86.1202C68.444 85.5242 69.6935 84.6066 70.7934 83.3909L69.3103 82.0491C68.3836 83.0734 67.3664 83.8092 66.2603 84.2798L67.0434 86.1202ZM69.3375 83.4198L73.1775 87.3398L74.6062 85.9402L70.7662 82.0202L69.3375 83.4198ZM73.1335 85.9882C71.771 87.5737 70.1607 88.7139 68.2954 89.4257L69.0084 91.2943C71.1963 90.4594 73.0794 89.1197 74.6503 87.2918L73.1335 85.9882ZM68.3021 89.4232C66.427 90.1232 64.3472 90.48 62.0519 90.48V92.48C64.5566 92.48 66.8767 92.0901 69.0016 91.2968L68.3021 89.4232ZM82.1944 91L81.2136 90.8049L80.9758 92H82.1944V91ZM86.7144 68.28L87.6952 68.4751L87.9329 67.28H86.7144V68.28ZM77.7544 68.28L76.7747 68.0796L76.5291 69.28H77.7544V68.28ZM78.8344 63V62H78.0182L77.8547 62.7996L78.8344 63ZM103.234 63L104.214 63.2004L104.46 62H103.234V63ZM102.154 68.28V69.28H102.971L103.134 68.4804L102.154 68.28ZM93.2344 68.28V67.28H92.4151L92.2539 68.0832L93.2344 68.28ZM88.6744 91V92H89.4936L89.6548 91.1968L88.6744 91ZM83.1752 91.1951L87.6952 68.4751L85.7336 68.0849L81.2136 90.8049L83.1752 91.1951ZM86.7144 67.28H77.7544V69.28H86.7144V67.28ZM78.7341 68.4804L79.8141 63.2004L77.8547 62.7996L76.7747 68.0796L78.7341 68.4804ZM78.8344 64H103.234V62H78.8344V64ZM102.255 62.7996L101.175 68.0796L103.134 68.4804L104.214 63.2004L102.255 62.7996ZM102.154 67.28H93.2344V69.28H102.154V67.28ZM92.2539 68.0832L87.6939 90.8032L89.6548 91.1968L94.2148 68.4768L92.2539 68.0832ZM88.6744 90H82.1944V92H88.6744V90ZM101.121 91L100.14 90.8039L99.9011 92H101.121V91ZM106.721 63V62H105.901L105.74 62.8039L106.721 63ZM113.241 63L114.222 63.1961L114.461 62H113.241V63ZM107.641 91V92H108.461L108.622 91.1961L107.641 91ZM102.102 91.1961L107.702 63.1961L105.74 62.8039L100.14 90.8039L102.102 91.1961ZM106.721 64H113.241V62H106.721V64ZM112.26 62.8039L106.66 90.8039L108.622 91.1961L114.222 63.1961L112.26 62.8039ZM107.641 90H101.121V92H107.641V90ZM121.446 89.96L120.989 90.8497L120.996 90.8533L121.003 90.8567L121.446 89.96ZM116.766 85.68L115.906 86.1908L115.91 86.1963L116.766 85.68ZM116.366 72.68L117.292 73.0577L117.294 73.0535L116.366 72.68ZM119.886 67.36L120.587 68.0733L120.587 68.0732L119.886 67.36ZM125.366 63.8L124.995 62.8715L124.991 62.8732L125.366 63.8ZM139.726 64.08L139.269 64.9697L139.276 64.9733L139.283 64.9767L139.726 64.08ZM144.446 68.36L143.586 68.8708L143.59 68.8763L144.446 68.36ZM144.846 81.36L145.772 81.7377L145.774 81.7335L144.846 81.36ZM141.286 86.68L141.987 87.3933L141.987 87.3932L141.286 86.68ZM135.806 90.2L135.435 89.2715L135.431 89.2732L135.806 90.2ZM133.566 85.12L133.974 86.0331L133.983 86.0291L133.566 85.12ZM136.806 82.72L137.561 83.3757L137.561 83.3757L136.806 82.72ZM138.806 79.24L137.865 78.9013L137.861 78.9122L138.806 79.24ZM138.646 71.4L137.77 71.8819L137.775 71.8913L138.646 71.4ZM136.046 68.92L135.582 69.8059L135.59 69.8102L136.046 68.92ZM127.646 68.92L128.054 69.833L128.062 69.8294L128.07 69.8257L127.646 68.92ZM124.406 71.28L123.661 70.6132L123.656 70.6187L123.651 70.6243L124.406 71.28ZM122.366 74.8L121.425 74.4613L121.421 74.4722L122.366 74.8ZM122.566 82.64L121.69 83.1219L121.697 83.1351L121.705 83.148L122.566 82.64ZM125.166 85.08L124.702 85.9659L124.71 85.9702L125.166 85.08ZM128.766 90.48C126.057 90.48 123.776 89.9946 121.888 89.0633L121.003 90.8567C123.223 91.9521 125.821 92.48 128.766 92.48V90.48ZM121.902 89.0703C120.028 88.1085 118.612 86.8057 117.622 85.1637L115.91 86.1963C117.106 88.181 118.81 89.7315 120.989 90.8497L121.902 89.0703ZM117.626 85.1692C116.635 83.5019 116.126 81.5625 116.126 79.32H114.126C114.126 81.8775 114.71 84.1781 115.906 86.1908L117.626 85.1692ZM116.126 79.32C116.126 77.037 116.519 74.9533 117.292 73.0577L115.44 72.3023C114.56 74.46 114.126 76.803 114.126 79.32H116.126ZM117.294 73.0535C118.071 71.1228 119.169 69.4664 120.587 68.0733L119.185 66.6467C117.563 68.2402 116.314 70.1306 115.438 72.3065L117.294 73.0535ZM120.587 68.0732C122.036 66.6495 123.75 65.5334 125.741 64.7268L124.991 62.8732C122.768 63.7733 120.83 65.0305 119.185 66.6468L120.587 68.0732ZM125.737 64.7285C127.739 63.928 129.971 63.52 132.446 63.52V61.52C129.748 61.52 127.26 61.9654 124.995 62.8715L125.737 64.7285ZM132.446 63.52C135.151 63.52 137.414 64.0176 139.269 64.9697L140.182 63.1903C137.985 62.0624 135.394 61.52 132.446 61.52V63.52ZM139.283 64.9767C141.176 65.9107 142.599 67.2088 143.586 68.8708L145.306 67.8492C144.107 65.8312 142.383 64.2759 140.168 63.1833L139.283 64.9767ZM143.59 68.8763C144.577 70.5139 145.086 72.4371 145.086 74.68H147.086C147.086 72.1228 146.502 69.8328 145.302 67.8437L143.59 68.8763ZM145.086 74.68C145.086 76.9629 144.693 79.0616 143.918 80.9865L145.774 81.7335C146.652 79.5518 147.086 77.1971 147.086 74.68H145.086ZM143.92 80.9823C143.144 82.8842 142.034 84.5431 140.585 85.9668L141.987 87.3932C143.632 85.7769 144.894 83.8891 145.772 81.7377L143.92 80.9823ZM140.585 85.9667C139.167 87.3601 137.455 88.4635 135.435 89.2715L136.177 91.1285C138.424 90.2298 140.365 88.9866 141.987 87.3933L140.585 85.9667ZM135.431 89.2732C133.458 90.072 131.242 90.48 128.766 90.48V92.48C131.464 92.48 133.94 92.0347 136.181 91.1268L135.431 89.2732ZM129.326 86.96C131.019 86.96 132.575 86.6582 133.974 86.033L133.158 84.207C132.05 84.7018 130.779 84.96 129.326 84.96V86.96ZM133.983 86.0291C135.386 85.386 136.583 84.5019 137.561 83.3757L136.051 82.0643C135.269 82.9648 134.306 83.6807 133.149 84.2109L133.983 86.0291ZM137.561 83.3757C138.527 82.2632 139.257 80.9911 139.751 79.5678L137.861 78.9122C137.448 80.1022 136.845 81.1501 136.051 82.0643L137.561 83.3757ZM139.747 79.5787C140.267 78.133 140.526 76.618 140.526 75.04H138.526C138.526 76.3953 138.305 77.6804 137.865 78.9013L139.747 79.5787ZM140.526 75.04C140.526 73.5092 140.201 72.1213 139.517 70.9087L137.775 71.8913C138.264 72.7587 138.526 73.7975 138.526 75.04H140.526ZM139.522 70.9181C138.833 69.6659 137.815 68.7019 136.501 68.0297L135.59 69.8102C136.57 70.3115 137.285 71.0008 137.77 71.8819L139.522 70.9181ZM136.51 68.0342C135.21 67.353 133.653 67.04 131.886 67.04V69.04C133.426 69.04 134.642 69.3137 135.582 69.8058L136.51 68.0342ZM131.886 67.04C130.186 67.04 128.625 67.3575 127.222 68.0143L128.07 69.8257C129.173 69.3091 130.439 69.04 131.886 69.04V67.04ZM127.238 68.007C125.857 68.6238 124.662 69.4939 123.661 70.6132L125.151 71.9468C125.963 71.0394 126.928 70.3362 128.054 69.833L127.238 68.007ZM123.651 70.6243C122.685 71.736 121.945 73.0183 121.425 74.4613L123.307 75.1387C123.747 73.915 124.366 72.8506 125.161 71.9357L123.651 70.6243ZM121.421 74.4722C120.929 75.8905 120.686 77.3885 120.686 78.96H122.686C122.686 77.5981 122.896 76.3228 123.311 75.1278L121.421 74.4722ZM120.686 78.96C120.686 80.4914 121.011 81.8881 121.69 83.1219L123.442 82.1581C122.947 81.2585 122.686 80.2019 122.686 78.96H120.686ZM121.705 83.148C122.417 84.3563 123.425 85.297 124.702 85.9658L125.63 84.1942C124.667 83.6897 123.941 83.0037 123.427 82.132L121.705 83.148ZM124.71 85.9702C126.03 86.6455 127.582 86.96 129.326 86.96V84.96C127.817 84.96 126.595 84.6878 125.621 84.1898L124.71 85.9702ZM147.996 91L147.015 90.8039L146.776 92H147.996V91ZM153.596 63V62H152.776L152.615 62.8039L153.596 63ZM158.956 63L159.816 62.4895L159.525 62H158.956V63ZM170.996 83.28L170.939 84.2784L172.815 84.3845L171.856 82.7695L170.996 83.28ZM168.876 83.16L167.895 82.9654L167.671 84.0934L168.819 84.1584L168.876 83.16ZM172.876 63V62H172.055L171.895 62.8054L172.876 63ZM179.276 63L180.257 63.1961L180.496 62H179.276V63ZM173.676 91V92H174.496L174.657 91.1961L173.676 91ZM168.356 91L167.497 91.5118L167.788 92H168.356V91ZM156.276 70.72L156.331 69.7215L154.455 69.6173L155.417 71.2318L156.276 70.72ZM158.436 70.84L159.416 71.0365L159.643 69.9055L158.491 69.8415L158.436 70.84ZM154.396 91V92H155.215L155.376 91.1965L154.396 91ZM148.977 91.1961L154.577 63.1961L152.615 62.8039L147.015 90.8039L148.977 91.1961ZM153.596 64H158.956V62H153.596V64ZM158.096 63.5105L170.136 83.7905L171.856 82.7695L159.816 62.4895L158.096 63.5105ZM171.052 82.2816L168.932 82.1616L168.819 84.1584L170.939 84.2784L171.052 82.2816ZM169.857 83.3546L173.857 63.1946L171.895 62.8054L167.895 82.9654L169.857 83.3546ZM172.876 64H179.276V62H172.876V64ZM178.295 62.8039L172.695 90.8039L174.657 91.1961L180.257 63.1961L178.295 62.8039ZM173.676 90H168.356V92H173.676V90ZM169.215 90.4882L157.135 70.2082L155.417 71.2318L167.497 91.5118L169.215 90.4882ZM156.22 71.7185L158.38 71.8385L158.491 69.8415L156.331 69.7215L156.22 71.7185ZM157.455 70.6435L153.415 90.8035L155.376 91.1965L159.416 71.0365L157.455 70.6435ZM154.396 90H147.996V92H154.396V90ZM176.621 91L175.781 90.4575L174.785 92H176.621V91ZM194.701 63V62H194.156L193.861 62.4575L194.701 63ZM201.141 63L202.112 62.7614L201.925 62H201.141V63ZM208.021 91V92H209.296L208.992 90.7614L208.021 91ZM201.541 91L200.564 91.2143L200.736 92H201.541V91ZM196.101 66.2V65.2H194.857L195.124 66.4143L196.101 66.2ZM198.661 66.2L199.514 66.7206L200.442 65.2H198.661V66.2ZM183.541 91V92H184.102L184.394 91.5206L183.541 91ZM184.101 85L183.219 84.5272L182.429 86H184.101V85ZM186.741 80.08V79.08H186.142L185.859 79.6072L186.741 80.08ZM201.181 80.08L202.169 79.9273L202.038 79.08H201.181V80.08ZM201.941 85V86H203.107L202.929 84.8473L201.941 85ZM177.461 91.5425L195.541 63.5425L193.861 62.4575L175.781 90.4575L177.461 91.5425ZM194.701 64H201.141V62H194.701V64ZM200.17 63.2386L207.05 91.2386L208.992 90.7614L202.112 62.7614L200.17 63.2386ZM208.021 90H201.541V92H208.021V90ZM202.517 90.7857L197.077 65.9857L195.124 66.4143L200.564 91.2143L202.517 90.7857ZM196.101 67.2H198.661V65.2H196.101V67.2ZM197.807 65.6794L182.687 90.4794L184.394 91.5206L199.514 66.7206L197.807 65.6794ZM183.541 90H176.621V92H183.541V90ZM184.982 85.4728L187.622 80.5528L185.859 79.6072L183.219 84.5272L184.982 85.4728ZM186.741 81.08H201.181V79.08H186.741V81.08ZM200.192 80.2327L200.952 85.1527L202.929 84.8473L202.169 79.9273L200.192 80.2327ZM201.941 84H184.101V86H201.941V84ZM210.926 91L209.945 90.8039L209.706 92H210.926V91ZM216.526 63V62H215.706L215.545 62.8039L216.526 63ZM236.006 65.28L235.38 66.0598L235.385 66.064L236.006 65.28ZM237.206 77.8L236.366 77.2573L236.364 77.2606L237.206 77.8ZM232.486 81.76L232.072 80.8496L232.067 80.8517L232.486 81.76ZM216.166 83.16L215.525 82.3925L213.409 84.16H216.166V83.16ZM219.566 80.32L220.546 80.5147L221.098 77.7372L218.925 79.5525L219.566 80.32ZM217.446 91V92H218.267L218.426 91.1947L217.446 91ZM228.926 91L228.054 91.4906L228.341 92H228.926V91ZM223.206 80.84V79.84H221.495L222.334 81.3306L223.206 80.84ZM230.006 80.84L230.876 80.3468L230.588 79.84H230.006V80.84ZM235.766 91V92H237.482L236.636 90.5068L235.766 91ZM219.406 81.08L218.597 81.6682L219.938 83.5121L220.386 81.2766L219.406 81.08ZM217.166 78V77H215.202L216.357 78.5882L217.166 78ZM230.526 76.56L231.159 77.334L231.161 77.3324L230.526 76.56ZM230.926 69.28L230.333 70.0856L230.347 70.0954L230.36 70.1047L230.926 69.28ZM219.206 68.28L218.525 67.5475L216.661 69.28H219.206V68.28ZM222.606 65.12L223.586 65.3166L224.196 62.2771L221.925 64.3875L222.606 65.12ZM211.906 91.1961L217.506 63.1961L215.545 62.8039L209.945 90.8039L211.906 91.1961ZM216.526 64H227.926V62H216.526V64ZM227.926 64C231.289 64 233.727 64.7332 235.38 66.0598L236.632 64.5002C234.497 62.7868 231.549 62 227.926 62V64ZM235.385 66.064C237.034 67.3696 237.886 69.1967 237.886 71.68H239.886C239.886 68.67 238.817 66.2304 236.626 64.496L235.385 66.064ZM237.886 71.68C237.886 73.8613 237.367 75.7071 236.366 77.2573L238.046 78.3427C239.284 76.4263 239.886 74.1921 239.886 71.68H237.886ZM236.364 77.2606C235.386 78.7869 233.97 79.9868 232.072 80.8496L232.899 82.6704C235.108 81.6666 236.839 80.2264 238.048 78.3394L236.364 77.2606ZM232.067 80.8517C230.2 81.7118 227.949 82.16 225.286 82.16V84.16C228.169 84.16 230.718 83.6749 232.904 82.6683L232.067 80.8517ZM225.286 82.16H216.166V84.16H225.286V82.16ZM216.807 83.9275L220.207 81.0875L218.925 79.5525L215.525 82.3925L216.807 83.9275ZM218.585 80.1253L216.465 90.8053L218.426 91.1947L220.546 80.5147L218.585 80.1253ZM217.446 90H210.926V92H217.446V90ZM229.797 90.5094L224.077 80.3494L222.334 81.3306L228.054 91.4906L229.797 90.5094ZM223.206 81.84H230.006V79.84H223.206V81.84ZM229.136 81.3332L234.896 91.4932L236.636 90.5068L230.876 80.3468L229.136 81.3332ZM235.766 90H228.926V92H235.766V90ZM220.214 80.4918L217.974 77.4118L216.357 78.5882L218.597 81.6682L220.214 80.4918ZM217.166 79H225.526V77H217.166V79ZM225.526 79C227.82 79 229.744 78.4912 231.159 77.334L229.892 75.786C228.96 76.5488 227.551 77 225.526 77V79ZM231.161 77.3324C232.639 76.1172 233.326 74.3791 233.326 72.28H231.326C231.326 73.9142 230.813 75.0295 229.891 75.7876L231.161 77.3324ZM233.326 72.28C233.326 70.6663 232.754 69.3209 231.491 68.4553L230.36 70.1047C230.964 70.519 231.326 71.1737 231.326 72.28H233.326ZM231.518 68.4743C230.376 67.6346 228.857 67.28 227.086 67.28V69.28C228.621 69.28 229.662 69.592 230.333 70.0856L231.518 68.4743ZM227.086 67.28H219.206V69.28H227.086V67.28ZM219.886 69.0125L223.286 65.8525L221.925 64.3875L218.525 67.5475L219.886 69.0125ZM221.625 64.9234L218.425 80.8834L220.386 81.2766L223.586 65.3166L221.625 64.9234ZM246.909 91L245.928 90.8058L245.692 92H246.909V91ZM249.189 79.48L250.174 79.3062L248.208 79.2858L249.189 79.48ZM249.909 83.56L248.981 83.932L250.894 83.3862L249.909 83.56ZM241.669 63V62H240.191L240.741 63.372L241.669 63ZM248.149 63L249.078 62.629L248.826 62H248.149V63ZM254.429 78.72L254.439 79.7199L255.899 79.705L255.358 78.349L254.429 78.72ZM250.509 78.76L249.73 78.1331L248.404 79.7815L250.519 79.7599L250.509 78.76ZM263.189 63V62H262.71L262.41 62.3731L263.189 63ZM269.869 63L270.651 63.6228L271.943 62H269.869V63ZM253.469 83.6L252.587 83.129L254.251 84.2228L253.469 83.6ZM255.669 79.48L256.65 79.6741L254.787 79.009L255.669 79.48ZM253.389 91V92H254.211L254.37 91.1942L253.389 91ZM247.89 91.1942L250.17 79.6741L248.208 79.2858L245.928 90.8058L247.89 91.1942ZM248.204 79.6538L248.924 83.7338L250.894 83.3862L250.174 79.3062L248.204 79.6538ZM250.837 83.188L242.597 62.628L240.741 63.372L248.981 83.932L250.837 83.188ZM241.669 64H248.149V62H241.669V64ZM247.22 63.371L253.5 79.091L255.358 78.349L249.078 62.629L247.22 63.371ZM254.419 77.7201L250.499 77.7601L250.519 79.7599L254.439 79.7199L254.419 77.7201ZM251.288 79.3869L263.968 63.6269L262.41 62.3731L249.73 78.1331L251.288 79.3869ZM263.189 64H269.869V62H263.189V64ZM269.087 62.3772L252.687 82.9772L254.251 84.2228L270.651 63.6228L269.087 62.3772ZM254.351 84.071L256.551 79.951L254.787 79.009L252.587 83.129L254.351 84.071ZM254.688 79.2858L252.408 90.8058L254.37 91.1942L256.65 79.6741L254.688 79.2858ZM253.389 90H246.909V92H253.389V90Z" fill="black" mask="url(#path-3-outside-2_2966_74)"/>
</svg>
